<svg width="29" height="29" viewBox="0 0 29 29" fill="none" xmlns="http://www.w3.org/2000/svg">
<path d="M29 26.706L20.4385 18.1445C21.8596 16.248 22.7124 13.9027 22.7124 11.3562C22.7124 5.09408 17.6184 0 11.3562 0C5.09408 0 0 5.09408 0 11.3562C0 17.6184 5.09408 22.7124 11.3562 22.7124C13.9027 22.7124 16.248 21.8596 18.1445 20.4385L26.706 29L29 26.706ZM1.08154 11.3562C1.08154 5.69055 5.69055 1.08154 11.3562 1.08154C17.0219 1.08154 21.6309 5.69055 21.6309 11.3562C21.6309 17.0219 17.0219 21.6309 11.3562 21.6309C5.69055 21.6309 1.08154 17.0219 1.08154 11.3562ZM19.2337 19.5181C19.3299 19.4251 19.4245 19.3304 19.5176 19.2342C19.5965 19.1525 19.682 19.0774 19.7582 18.9935L27.4707 26.706L26.7055 27.4712L18.9935 19.7582C19.0774 19.682 19.152 19.5965 19.2337 19.5181Z" fill="#595959"/>
</svg>
